<svg width="4400" height="4400" viewBox="0 0 4400 4400" fill="none" xmlns="http://www.w3.org/2000/svg">
<path d="M125.71 1521.86C107.565 1520.46 92 1534.65 92 1552.67C92 1567.84 103.056 1580.75 118.197 1583.12C192.128 1594.65 405.099 1627.18 529.822 1639.1C1017.48 1683.73 1236.8 1776.73 1330 1882.38C1457.84 1989.64 1536.79 2113.55 1578.44 2292.95C1614.66 2395.88 1640.84 2545.51 1808.06 2824.63C1959.96 3055.49 2164.41 3235.12 2273.23 3293.34C2401.01 3368.27 2537.56 3444.34 2730.11 3503.83C2870.1 3544.06 3039.86 3562.53 3131.85 3570.44C3163.05 3571.9 3184.98 3572.92 3193.44 3574.91C3216.95 3580.45 3131.38 3325.98 3021.83 3000.23C2986.12 2883.14 2947.64 2756.89 2902.76 2630.58C2827.04 2400.01 2743.19 2187.77 2700.9 2075.01C2627.89 1844.11 2452.99 1509.9 2054.27 1471.8C1991.07 1457.12 1711.74 1471.49 1445.08 1561.1C1368.87 1588.51 1290.88 1615.28 1209.81 1614.05C1039.79 1611.48 845.638 1589.08 845.638 1589.08C845.638 1589.08 651.234 1569.36 594.038 1563.03C466.993 1548.96 336.145 1538.1 125.71 1521.86Z" fill="url(#paint0_angular_18_8)"/>
<ellipse cx="1994.03" cy="1913.58" rx="116.451" ry="115.182" fill="white"/>
<path d="M3191.52 825C3264.58 1215.87 3330.82 1710.52 3193.28 2128.12C2986.59 2486.12 2681.57 2717.64 2332.37 2599.66C2257.02 2574.2 2233.73 2483.94 2273.49 2415.07L2627.69 1801.58L2840.79 1432.48L3191.52 825Z" fill="#818DFB"/>
<path d="M3191.52 825C3264.58 1215.87 3330.82 1710.52 3193.28 2128.12C2986.59 2486.12 2681.57 2717.64 2332.37 2599.66C2257.02 2574.2 2233.73 2483.94 2273.49 2415.07L2627.69 1801.58L2840.79 1432.48L3191.52 825Z" fill="#818DFB"/>
<path d="M3916.27 1499.33C3784.1 1874.37 3594.14 2335.87 3266.24 2628.75C2908.24 2835.44 2528.32 2883.43 2284.89 2606.66C2232.37 2546.94 2257.33 2457.12 2326.2 2417.36L2939.69 2063.16L3308.79 1850.06L3916.27 1499.33Z" fill="#818DFB" fill-opacity="0.3"/>
<path d="M3916.27 1499.33C3784.1 1874.37 3594.14 2335.87 3266.24 2628.75C2908.24 2835.44 2528.32 2883.43 2284.89 2606.66C2232.37 2546.94 2257.33 2457.12 2326.2 2417.36L2939.69 2063.16L3308.79 1850.06L3916.27 1499.33Z" fill="#818DFB" fill-opacity="0.3"/>
<path d="M4195.1 2115.77C3942.64 2422.98 3606.29 2791.68 3197.99 2954.75C2790.89 3026.53 2417.47 2941.69 2283.39 2598.35C2254.46 2524.27 2308.62 2448.4 2386.95 2434.59L3084.58 2311.58L3504.31 2237.57L4195.1 2115.77Z" fill="#818DFB" fill-opacity="0.2"/>
<path d="M4195.1 2115.77C3942.64 2422.98 3606.29 2791.68 3197.99 2954.75C2790.89 3026.53 2417.47 2941.69 2283.39 2598.35C2254.46 2524.27 2308.62 2448.4 2386.95 2434.59L3084.58 2311.58L3504.31 2237.57L4195.1 2115.77Z" fill="#818DFB" fill-opacity="0.2"/>
<defs>
<radialGradient id="paint0_angular_18_8" cx="0" cy="0" r="1" gradientUnits="userSpaceOnUse" gradientTransform="translate(1644.68 2747.78) rotate(90) scale(827.217 1218.49)">
<stop stop-color="white" stop-opacity="0.980765"/>
<stop offset="1" stop-color="#EB3DFB"/>
</radialGradient>
</defs>
</svg>
